<mxfile host="app.diagrams.net" modified="2024-05-05T06:39:54.610Z" agent="Mozilla/5.0 (Windows NT 10.0; Win64; x64) AppleWebKit/537.36 (KHTML, like Gecko) Chrome/124.0.0.0 Safari/537.36" etag="ZalWMgZ7eRGxEiK1dqDR" version="24.3.1" type="device">
  <diagram name="Page-1" id="0hkuFtJwVv9wcZaDH0Jm">
    <mxGraphModel dx="1050" dy="522" grid="1" gridSize="10" guides="1" tooltips="1" connect="1" arrows="1" fold="1" page="1" pageScale="1" pageWidth="827" pageHeight="1169" math="0" shadow="0">
      <root>
        <mxCell id="0" />
        <mxCell id="1" parent="0" />
        <mxCell id="VbkZ5rxrgUS5kEJ3vTVF-4" value="" style="edgeStyle=orthogonalEdgeStyle;rounded=0;orthogonalLoop=1;jettySize=auto;html=1;" parent="1" source="VbkZ5rxrgUS5kEJ3vTVF-1" target="VbkZ5rxrgUS5kEJ3vTVF-2" edge="1">
          <mxGeometry relative="1" as="geometry" />
        </mxCell>
        <mxCell id="VbkZ5rxrgUS5kEJ3vTVF-1" value="Input Data" style="rounded=1;whiteSpace=wrap;html=1;" parent="1" vertex="1">
          <mxGeometry x="34" y="31.5" width="120" height="60" as="geometry" />
        </mxCell>
        <mxCell id="VbkZ5rxrgUS5kEJ3vTVF-6" value="" style="edgeStyle=orthogonalEdgeStyle;rounded=0;orthogonalLoop=1;jettySize=auto;html=1;" parent="1" source="VbkZ5rxrgUS5kEJ3vTVF-2" target="VbkZ5rxrgUS5kEJ3vTVF-3" edge="1">
          <mxGeometry relative="1" as="geometry" />
        </mxCell>
        <mxCell id="VbkZ5rxrgUS5kEJ3vTVF-2" value="Preprocessing Data" style="rounded=1;whiteSpace=wrap;html=1;" parent="1" vertex="1">
          <mxGeometry x="190" y="31.5" width="120" height="60" as="geometry" />
        </mxCell>
        <mxCell id="VbkZ5rxrgUS5kEJ3vTVF-8" value="" style="edgeStyle=orthogonalEdgeStyle;rounded=0;orthogonalLoop=1;jettySize=auto;html=1;" parent="1" source="VbkZ5rxrgUS5kEJ3vTVF-3" target="VbkZ5rxrgUS5kEJ3vTVF-7" edge="1">
          <mxGeometry relative="1" as="geometry" />
        </mxCell>
        <mxCell id="VbkZ5rxrgUS5kEJ3vTVF-3" value="Reduksi Dimensi (PCA)" style="rounded=1;whiteSpace=wrap;html=1;" parent="1" vertex="1">
          <mxGeometry x="340" y="30" width="120" height="63" as="geometry" />
        </mxCell>
        <mxCell id="VbkZ5rxrgUS5kEJ3vTVF-11" value="" style="edgeStyle=orthogonalEdgeStyle;rounded=0;orthogonalLoop=1;jettySize=auto;html=1;exitX=1;exitY=0.5;exitDx=0;exitDy=0;" parent="1" source="VbkZ5rxrgUS5kEJ3vTVF-7" target="VbkZ5rxrgUS5kEJ3vTVF-10" edge="1">
          <mxGeometry relative="1" as="geometry" />
        </mxCell>
        <mxCell id="VbkZ5rxrgUS5kEJ3vTVF-7" value="Elbow Method" style="rounded=1;whiteSpace=wrap;html=1;" parent="1" vertex="1">
          <mxGeometry x="490" y="30" width="120" height="63" as="geometry" />
        </mxCell>
        <mxCell id="VbkZ5rxrgUS5kEJ3vTVF-14" value="" style="edgeStyle=orthogonalEdgeStyle;rounded=0;orthogonalLoop=1;jettySize=auto;html=1;" parent="1" source="VbkZ5rxrgUS5kEJ3vTVF-10" target="VbkZ5rxrgUS5kEJ3vTVF-13" edge="1">
          <mxGeometry relative="1" as="geometry" />
        </mxCell>
        <mxCell id="VbkZ5rxrgUS5kEJ3vTVF-10" value="K-Means Clustering dengan Jumlah Klaster Optimal" style="rounded=1;whiteSpace=wrap;html=1;" parent="1" vertex="1">
          <mxGeometry x="590" y="106.5" width="150" height="63" as="geometry" />
        </mxCell>
        <mxCell id="VbkZ5rxrgUS5kEJ3vTVF-16" value="" style="edgeStyle=orthogonalEdgeStyle;rounded=0;orthogonalLoop=1;jettySize=auto;html=1;" parent="1" source="VbkZ5rxrgUS5kEJ3vTVF-13" target="VbkZ5rxrgUS5kEJ3vTVF-15" edge="1">
          <mxGeometry relative="1" as="geometry" />
        </mxCell>
        <mxCell id="VbkZ5rxrgUS5kEJ3vTVF-13" value="Evaluasi Model dengan Metric Unsupervised Learning" style="rounded=1;whiteSpace=wrap;html=1;" parent="1" vertex="1">
          <mxGeometry x="410" y="106.5" width="150" height="63" as="geometry" />
        </mxCell>
        <mxCell id="VbkZ5rxrgUS5kEJ3vTVF-19" value="" style="edgeStyle=orthogonalEdgeStyle;rounded=0;orthogonalLoop=1;jettySize=auto;html=1;" parent="1" source="VbkZ5rxrgUS5kEJ3vTVF-15" target="VbkZ5rxrgUS5kEJ3vTVF-18" edge="1">
          <mxGeometry relative="1" as="geometry" />
        </mxCell>
        <mxCell id="VbkZ5rxrgUS5kEJ3vTVF-15" value="Plot hasil klasterisasi&amp;nbsp;&lt;div&gt;K-means&lt;/div&gt;" style="rounded=1;whiteSpace=wrap;html=1;" parent="1" vertex="1">
          <mxGeometry x="230" y="106.5" width="140" height="63" as="geometry" />
        </mxCell>
        <mxCell id="VbkZ5rxrgUS5kEJ3vTVF-18" value="Interpretasi hasil &amp;amp; EDA&amp;nbsp; (Exploratory data analysis)" style="rounded=1;whiteSpace=wrap;html=1;" parent="1" vertex="1">
          <mxGeometry x="34" y="106.5" width="160" height="63" as="geometry" />
        </mxCell>
      </root>
    </mxGraphModel>
  </diagram>
</mxfile>
